# xmcd
#
# Track frame offsets:
#	150
#	17167
#	35112
#	50960
#	67192
#	86615
#	107397
#	125595
#	142385
#	158085
#	176127
#
# Disc length: 2524 seconds
#
# Revision: 0
# Processed by: cddbd v1.5PL3 Copyright (c) Steve Scherf et al.
# Submitted via: dBpowerAMP V4.0
#
DISCID=a709da0b
DTITLE= 最佳友情人
DYEAR=1999
DGENRE=
TTITLE0=鄭少秋-香港料理
TTITLE1=汪明荃-(濃情) 朱古力
TTITLE2=鄭少秋-不是我的錯
TTITLE3=汪明荃-貓貓
TTITLE4=鄭少秋-奇跡 (國)
TTITLE5=鄭少秋+汪明荃-友情樂章
TTITLE6=汪明荃-美麗娛樂世界
TTITLE7=鄭少秋+汪明荃-抱緊不放手
TTITLE8=鄭少秋-清風不染
TTITLE9=鄭少秋+汪明荃-美麗娛樂世界
TTITLE10=鄭少秋+汪明荃-紅卜卜利是
EXTD=
EXTT0=
EXTT1=
EXTT2=
EXTT3=
EXTT4=
EXTT5=
EXTT6=
EXTT7=
EXTT8=
EXTT9=
EXTT10=
PLAYORDER=
